<svg xmlns="http://www.w3.org/2000/svg" xmlns:xlink="http://www.w3.org/1999/xlink" width="100" zoomAndPan="magnify" viewBox="0 0 75 74.999997" height="100" preserveAspectRatio="xMidYMid meet" version="1.0"><defs><clipPath id="id1"><path d="M 75 37.5 C 75 58.210938 58.210938 75 37.5 75 C 16.789062 75 0 58.210938 0 37.5 C 0 16.789062 16.789062 0 37.5 0 C 58.210938 0 75 16.789062 75 37.5 Z M 75 37.5 " clip-rule="nonzero"/></clipPath><clipPath id="id2"><path d="M 7 16.664062 L 67.734375 16.664062 L 67.734375 67.664062 L 7 67.664062 Z M 7 16.664062 " clip-rule="nonzero"/></clipPath><clipPath id="id3"><path d="M 7 16.664062 L 67.734375 16.664062 L 67.734375 58 L 7 58 Z M 7 16.664062 " clip-rule="nonzero"/></clipPath></defs><g clip-path="url(#id1)"><rect x="-7.5" width="90" fill="#000000" y="-7.5" height="89.999996" fill-opacity="1"/></g><g clip-path="url(#id2)"><path fill="#ff914d" d="M 15.664062 19.507812 C 12.460938 19.507812 9.855469 22.113281 9.855469 25.316406 L 9.855469 48.761719 C 9.855469 51.964844 12.460938 54.570312 15.664062 54.570312 L 44.488281 54.570312 C 45.769531 54.570312 46.8125 55.609375 46.8125 56.890625 L 46.8125 63.910156 L 54.171875 55.375 C 54.613281 54.863281 55.257812 54.570312 55.933594 54.570312 L 59.046875 54.570312 C 62.25 54.570312 64.855469 51.964844 64.855469 48.761719 L 64.855469 25.316406 C 64.855469 22.113281 62.25 19.507812 59.046875 19.507812 Z M 46.292969 67.652344 C 46.019531 67.652344 45.746094 67.605469 45.476562 67.503906 C 44.554688 67.164062 43.960938 66.308594 43.960938 65.328125 L 43.960938 57.417969 L 15.664062 57.417969 C 10.890625 57.417969 7.003906 53.535156 7.003906 48.761719 L 7.003906 25.316406 C 7.003906 20.542969 10.890625 16.660156 15.664062 16.660156 L 59.046875 16.660156 C 63.820312 16.660156 67.707031 20.542969 67.707031 25.316406 L 67.707031 48.761719 C 67.707031 53.535156 63.820312 57.417969 59.046875 57.417969 L 56.175781 57.417969 L 48.046875 66.84375 C 47.589844 67.371094 46.953125 67.652344 46.292969 67.652344 " fill-opacity="1" fill-rule="nonzero"/></g><g clip-path="url(#id3)"><path fill="#5ce1e6" d="M 15.664062 57.417969 C 10.890625 57.417969 7.003906 53.535156 7.003906 48.761719 L 7.003906 25.316406 C 7.003906 20.542969 10.890625 16.660156 15.664062 16.660156 L 59.046875 16.660156 C 63.820312 16.660156 67.707031 20.542969 67.707031 25.316406 C 67.707031 26.101562 67.070312 26.742188 66.28125 26.742188 C 65.496094 26.742188 64.855469 26.101562 64.855469 25.316406 C 64.855469 22.113281 62.25 19.507812 59.046875 19.507812 L 15.664062 19.507812 C 12.460938 19.507812 9.855469 22.113281 9.855469 25.316406 L 9.855469 48.761719 C 9.855469 51.964844 12.460938 54.570312 15.664062 54.570312 C 16.453125 54.570312 17.089844 55.207031 17.089844 55.992188 C 17.089844 56.78125 16.453125 57.417969 15.664062 57.417969 " fill-opacity="1" fill-rule="nonzero"/></g><path fill="#88a6dd" d="M 21.210938 34.550781 C 19.507812 34.550781 18.117188 35.9375 18.117188 37.644531 C 18.117188 39.351562 19.507812 40.738281 21.210938 40.738281 C 22.917969 40.738281 24.308594 39.351562 24.308594 37.644531 C 24.308594 35.9375 22.917969 34.550781 21.210938 34.550781 Z M 21.210938 43.585938 C 17.933594 43.585938 15.265625 40.921875 15.265625 37.644531 C 15.265625 34.367188 17.933594 31.699219 21.210938 31.699219 C 24.492188 31.699219 27.15625 34.367188 27.15625 37.644531 C 27.15625 40.921875 24.492188 43.585938 21.210938 43.585938 " fill-opacity="1" fill-rule="nonzero"/><path fill="#ff5757" d="M 37.59375 34.550781 C 35.886719 34.550781 34.496094 35.9375 34.496094 37.644531 C 34.496094 39.351562 35.886719 40.738281 37.59375 40.738281 C 39.296875 40.738281 40.6875 39.351562 40.6875 37.644531 C 40.6875 35.9375 39.296875 34.550781 37.59375 34.550781 Z M 37.59375 43.585938 C 34.3125 43.585938 31.644531 40.921875 31.644531 37.644531 C 31.644531 34.367188 34.3125 31.699219 37.59375 31.699219 C 40.871094 31.699219 43.539062 34.367188 43.539062 37.644531 C 43.539062 40.921875 40.871094 43.585938 37.59375 43.585938 " fill-opacity="1" fill-rule="nonzero"/><path fill="#38b6ff" d="M 53.972656 34.550781 C 52.265625 34.550781 50.875 35.9375 50.875 37.644531 C 50.875 39.351562 52.265625 40.738281 53.972656 40.738281 C 55.679688 40.738281 57.066406 39.351562 57.066406 37.644531 C 57.066406 35.9375 55.679688 34.550781 53.972656 34.550781 Z M 53.972656 43.585938 C 50.691406 43.585938 48.027344 40.921875 48.027344 37.644531 C 48.027344 34.367188 50.691406 31.699219 53.972656 31.699219 C 57.25 31.699219 59.917969 34.367188 59.917969 37.644531 C 59.917969 40.921875 57.25 43.585938 53.972656 43.585938 " fill-opacity="1" fill-rule="nonzero"/></svg>