<svg xmlns="http://www.w3.org/2000/svg" xmlns:xlink="http://www.w3.org/1999/xlink" width="312" zoomAndPan="magnify" viewBox="0 0 234 74.999997" height="100" preserveAspectRatio="xMidYMid meet" version="1.0"><defs><g/><clipPath id="id1"><path d="M 172.921875 15.890625 L 224.519531 15.890625 L 224.519531 58.777344 L 172.921875 58.777344 Z M 172.921875 15.890625 " clip-rule="nonzero"/></clipPath><clipPath id="id2"><path d="M 172.921875 15.890625 L 224.519531 15.890625 L 224.519531 51 L 172.921875 51 Z M 172.921875 15.890625 " clip-rule="nonzero"/></clipPath></defs><g fill="#ffffff" fill-opacity="1"><g transform="translate(9.627091, 44.919903)"><g><path d="M 5.382812 -9.167969 C 5.382812 -12.660156 7.90625 -14.394531 10.425781 -14.394531 C 12.527344 -14.394531 14.65625 -13.183594 15.261719 -10.742188 L 19.804688 -10.742188 C 19.226562 -15.46875 15.15625 -18.675781 10.425781 -18.675781 C 5.175781 -18.675781 0.917969 -14.578125 0.917969 -9.167969 C 0.917969 -3.757812 5.175781 0.261719 10.425781 0.261719 C 15.207031 0.261719 19.148438 -2.914062 19.828125 -7.722656 L 15.285156 -7.722656 C 14.707031 -5.226562 12.582031 -3.964844 10.425781 -3.964844 C 7.90625 -3.964844 5.382812 -5.699219 5.382812 -9.167969 Z M 5.382812 -9.167969 "/></g></g></g><g fill="#ffffff" fill-opacity="1"><g transform="translate(29.507034, 44.919903)"><g><path d="M 1.339844 -9.167969 C 1.339844 -3.757812 5.59375 0.261719 10.847656 0.261719 C 16.101562 0.261719 20.382812 -3.835938 20.382812 -9.167969 C 20.382812 -14.578125 16.101562 -18.675781 10.847656 -18.675781 C 5.59375 -18.675781 1.339844 -14.578125 1.339844 -9.167969 Z M 5.804688 -9.167969 C 5.804688 -12.660156 8.324219 -14.367188 10.847656 -14.367188 C 13.367188 -14.367188 15.863281 -12.632812 15.863281 -9.167969 C 15.863281 -5.726562 13.316406 -3.992188 10.792969 -3.992188 C 8.273438 -3.992188 5.804688 -5.699219 5.804688 -9.167969 Z M 5.804688 -9.167969 "/></g></g></g><g fill="#ffffff" fill-opacity="1"><g transform="translate(50.43744, 44.919903)"><g><path d="M 8.457031 -18.542969 L 1.3125 -18.542969 L 1.3125 0 L 5.777344 0 L 5.777344 -6.226562 L 6.515625 -6.226562 L 10.347656 0 L 15.128906 0 L 15.128906 -0.839844 L 11.1875 -6.671875 C 13.605469 -7.828125 14.789062 -10.191406 14.789062 -12.421875 C 14.789062 -15.46875 12.660156 -18.542969 8.457031 -18.542969 Z M 8.351562 -10.296875 L 5.777344 -10.296875 L 5.777344 -14.234375 L 8.351562 -14.234375 C 9.71875 -14.234375 10.402344 -13.210938 10.402344 -12.238281 C 10.402344 -11.292969 9.691406 -10.296875 8.351562 -10.296875 Z M 8.351562 -10.296875 "/></g></g></g><g fill="#ffffff" fill-opacity="1"><g transform="translate(65.616539, 44.919903)"><g><path d="M 1.3125 -18.542969 L 1.3125 0 L 13.449219 0 L 13.449219 -4.332031 L 5.832031 -4.332031 L 5.832031 -7.277344 L 13.265625 -7.277344 L 13.265625 -11.636719 L 5.832031 -11.636719 L 5.832031 -14.210938 L 13.421875 -14.210938 L 13.421875 -18.542969 Z M 1.3125 -18.542969 "/></g></g></g><g fill="#ffffff" fill-opacity="1"><g transform="translate(79.482555, 44.919903)"><g><path d="M 15.261719 -18.59375 L 0.867188 -18.59375 L 0.867188 -14.394531 L 5.832031 -14.394531 L 5.832031 0 L 10.320312 0 L 10.320312 -14.394531 L 15.261719 -14.394531 Z M 15.261719 -18.59375 "/></g></g></g><g fill="#ffffff" fill-opacity="1"><g transform="translate(95.160628, 44.919903)"><g><path d="M 7.5625 -18.59375 L 0.210938 0 L 5.015625 0 L 6.039062 -2.707031 L 12.316406 -2.707031 L 13.34375 0 L 18.410156 0 L 10.769531 -18.59375 Z M 9.191406 -11.1875 L 10.609375 -7.195312 L 10.714844 -6.882812 L 7.667969 -6.882812 L 7.828125 -7.300781 Z M 9.191406 -11.1875 "/></g></g></g><g fill="#ffffff" fill-opacity="1"><g transform="translate(112.755803, 44.919903)"><g><path d="M 1.3125 -18.386719 L 1.3125 0 L 13.527344 0 L 13.527344 -4.332031 L 5.804688 -4.332031 L 5.804688 -18.386719 Z M 1.3125 -18.386719 "/></g></g></g><g fill="#ffffff" fill-opacity="1"><g transform="translate(126.437981, 44.919903)"><g><path d="M 11.320312 0 L 16.886719 0 L 16.886719 -0.238281 L 9.769531 -9.246094 L 16.285156 -18.121094 L 16.285156 -18.386719 L 10.953125 -18.386719 L 5.855469 -11.242188 L 5.855469 -18.386719 L 1.367188 -18.386719 L 1.367188 0 L 5.855469 0 L 5.855469 -7.117188 Z M 11.320312 0 "/></g></g></g><g fill="#ffffff" fill-opacity="1"><g transform="translate(142.930163, 44.919903)"><g><path d="M 10.425781 -12.582031 L 14.945312 -12.582031 C 14.945312 -16.808594 11.398438 -18.648438 8.117188 -18.648438 C 4.203125 -18.648438 0.894531 -16.230469 1.101562 -12.1875 L 1.101562 -12.214844 C 1.445312 -7.984375 4.964844 -7.328125 7.933594 -7.039062 C 8.613281 -6.960938 10.714844 -6.90625 10.714844 -5.59375 C 10.714844 -4.542969 9.535156 -4.125 8.0625 -4.125 C 7.039062 -4.125 5.515625 -4.464844 5.515625 -6.277344 L 0.972656 -6.277344 C 0.972656 -1.601562 5.042969 0.238281 8.035156 0.238281 C 11.53125 0.238281 15.261719 -1.96875 15.261719 -5.804688 C 15.261719 -6.199219 15.207031 -6.671875 15.128906 -7.089844 C 14.339844 -10.402344 11.058594 -11.082031 8.457031 -11.425781 C 7.851562 -11.476562 5.671875 -11.503906 5.671875 -12.871094 C 5.671875 -13.867188 6.644531 -14.472656 8.035156 -14.472656 C 9.429688 -14.472656 10.425781 -13.816406 10.425781 -12.582031 Z M 10.425781 -12.582031 "/></g></g></g><g clip-path="url(#id1)"><path fill="#ff914d" d="M 180.292969 18.28125 C 177.574219 18.28125 175.359375 20.472656 175.359375 23.164062 L 175.359375 42.878906 C 175.359375 45.574219 177.574219 47.765625 180.292969 47.765625 L 204.773438 47.765625 C 205.863281 47.765625 206.75 48.640625 206.75 49.71875 L 206.75 55.621094 L 213.003906 48.441406 C 213.378906 48.011719 213.921875 47.765625 214.496094 47.765625 L 217.140625 47.765625 C 219.863281 47.765625 222.078125 45.574219 222.078125 42.878906 L 222.078125 23.164062 C 222.078125 20.472656 219.863281 18.28125 217.140625 18.28125 Z M 206.308594 58.765625 C 206.078125 58.765625 205.84375 58.726562 205.613281 58.640625 C 204.832031 58.355469 204.328125 57.636719 204.328125 56.8125 L 204.328125 50.160156 L 180.292969 50.160156 C 176.238281 50.160156 172.9375 46.894531 172.9375 42.878906 L 172.9375 23.164062 C 172.9375 19.152344 176.238281 15.886719 180.292969 15.886719 L 217.140625 15.886719 C 221.199219 15.886719 224.496094 19.152344 224.496094 23.164062 L 224.496094 42.878906 C 224.496094 46.894531 221.199219 50.160156 217.140625 50.160156 L 214.703125 50.160156 L 207.796875 58.085938 C 207.410156 58.527344 206.871094 58.765625 206.308594 58.765625 " fill-opacity="1" fill-rule="nonzero"/></g><g clip-path="url(#id2)"><path fill="#5ce1e6" d="M 180.292969 50.160156 C 176.238281 50.160156 172.9375 46.894531 172.9375 42.878906 L 172.9375 23.164062 C 172.9375 19.152344 176.238281 15.886719 180.292969 15.886719 L 217.140625 15.886719 C 221.199219 15.886719 224.496094 19.152344 224.496094 23.164062 C 224.496094 23.824219 223.957031 24.363281 223.285156 24.363281 C 222.617188 24.363281 222.078125 23.824219 222.078125 23.164062 C 222.078125 20.472656 219.863281 18.28125 217.140625 18.28125 L 180.292969 18.28125 C 177.574219 18.28125 175.359375 20.472656 175.359375 23.164062 L 175.359375 42.878906 C 175.359375 45.574219 177.574219 47.765625 180.292969 47.765625 C 180.964844 47.765625 181.503906 48.300781 181.503906 48.960938 C 181.503906 49.625 180.964844 50.160156 180.292969 50.160156 " fill-opacity="1" fill-rule="nonzero"/></g><path fill="#88a6dd" d="M 185.007812 30.929688 C 183.558594 30.929688 182.378906 32.097656 182.378906 33.53125 C 182.378906 34.964844 183.558594 36.132812 185.007812 36.132812 C 186.457031 36.132812 187.636719 34.964844 187.636719 33.53125 C 187.636719 32.097656 186.457031 30.929688 185.007812 30.929688 Z M 185.007812 38.527344 C 182.222656 38.527344 179.957031 36.289062 179.957031 33.53125 C 179.957031 30.773438 182.222656 28.535156 185.007812 28.535156 C 187.789062 28.535156 190.054688 30.773438 190.054688 33.53125 C 190.054688 36.289062 187.789062 38.527344 185.007812 38.527344 " fill-opacity="1" fill-rule="nonzero"/><path fill="#ff5757" d="M 198.917969 30.929688 C 197.46875 30.929688 196.289062 32.097656 196.289062 33.53125 C 196.289062 34.964844 197.46875 36.132812 198.917969 36.132812 C 200.367188 36.132812 201.546875 34.964844 201.546875 33.53125 C 201.546875 32.097656 200.367188 30.929688 198.917969 30.929688 Z M 198.917969 38.527344 C 196.132812 38.527344 193.867188 36.289062 193.867188 33.53125 C 193.867188 30.773438 196.132812 28.535156 198.917969 28.535156 C 201.703125 28.535156 203.96875 30.773438 203.96875 33.53125 C 203.96875 36.289062 201.703125 38.527344 198.917969 38.527344 " fill-opacity="1" fill-rule="nonzero"/><path fill="#38b6ff" d="M 212.832031 30.929688 C 211.382812 30.929688 210.203125 32.097656 210.203125 33.53125 C 210.203125 34.964844 211.382812 36.132812 212.832031 36.132812 C 214.28125 36.132812 215.460938 34.964844 215.460938 33.53125 C 215.460938 32.097656 214.28125 30.929688 212.832031 30.929688 Z M 212.832031 38.527344 C 210.046875 38.527344 207.78125 36.289062 207.78125 33.53125 C 207.78125 30.773438 210.046875 28.535156 212.832031 28.535156 C 215.617188 28.535156 217.878906 30.773438 217.878906 33.53125 C 217.878906 36.289062 215.617188 38.527344 212.832031 38.527344 " fill-opacity="1" fill-rule="nonzero"/></svg>